Coordinates
version=1
nRows=6
nColumns=36
inDegrees=yes

Units are S.I. units (second, meters, Newtons, ...)
If the header above contains a line with 'inDegrees', this indicates whether rotational values are in degrees (yes) or radians (no).

endheader
time	pelvis_tilt	pelvis_list	pelvis_rotation	pelvis_tx	pelvis_ty	pelvis_tz	hip_flexion_r	hip_adduction_r	hip_rotation_r	knee_angle_r	knee_angle_r_beta	ankle_angle_r	subtalar_angle_r	mtp_angle_r	hip_flexion_l	hip_adduction_l	hip_rotation_l	knee_angle_l	knee_angle_l_beta	ankle_angle_l	subtalar_angle_l	mtp_angle_l	lumbar_extension	lumbar_bending	lumbar_rotation	arm_flex_r	arm_add_r	arm_rot_r	elbow_flex_r	pro_sup_r	arm_flex_l	arm_add_l	arm_rot_l	elbow_flex_l	pro_sup_l
      0.00000000	     11.08447703	     -3.26268159	     -0.98725228	      0.51757012	      1.05043997	      0.73674227	     -7.86025316	      6.28361538	      1.30722180	      9.90195858	      0.17282178	      5.89039000	     -9.21900345	     -7.02946715	     11.56499284	     -6.05602797	     -1.99281158	     56.80006658	      0.99134818	      4.05487850	     -9.26621029	     -7.02946715	    -27.34974635	      3.04788663	      2.81104674	     15.29897629	    -18.15278600	     10.74025391	     37.24984873	     95.15163197	      4.45052985	     -9.85474784	      4.35323585	     23.74972968	     90.04925947
      0.01666670	     10.80701728	     -3.12237926	     -0.48967408	      0.51470736	      1.04833220	      0.74016697	     -9.08765494	      6.41995784	      1.18772467	      8.94390682	      0.15610062	      6.57938407	     -6.60270716	     -7.15445132	     13.28781657	     -6.01222835	     -2.12635217	     53.48492597	      0.93348806	      6.95460657	     -7.12788536	     -7.15445132	    -26.65181255	      2.59862691	      3.36590686	     15.80496195	    -18.72095879	     12.34009089	     37.59997057	    101.06811290	      5.48483163	    -10.19234886	     10.39079077	     21.82949431	     97.72910693
      0.03333330	     10.59768880	     -3.09177426	     -0.69051046	      0.51498762	      1.04695252	      0.74012717	    -10.29640628	      6.20194408	      1.01249012	      8.05324969	      0.14055572	      7.15342539	     -4.84141854	     -7.15963575	     14.00929024	     -6.22555388	     -2.60604788	     49.31898049	      0.86077859	      8.15037462	     -5.06013991	     -7.15963575	    -26.32529446	      2.21674657	      3.64026277	     16.32241707	    -19.31255763	     13.67980740	     38.86202624	    102.20042130	      5.51388258	    -10.33151887	     12.21756269	     21.34620352	     99.16905014
      0.05000000	      9.48666394	     -2.99595325	     -0.66005030	      0.51847310	      1.04437463	      0.73775459	    -10.31429765	      5.94331162	      0.68792788	      7.37855689	      0.12878011	      8.78005434	     -3.11415079	     -7.17124966	     15.46730541	     -6.23029614	     -3.24547806	     44.76130950	      0.78123223	      8.87593459	     -3.34729996	     -7.17124966	    -24.95618245	      2.04007148	      3.41459689	     15.99706877	    -19.75637434	     13.77109780	     40.15924094	    102.61349163	      5.04596007	    -10.58915043	     13.74271750	     21.04906220	    100.16652160
      0.06666670	      8.56289317	     -3.02991629	     -0.84840881	      0.52211589	      1.04247539	      0.73546542	    -10.40463542	      5.82992186	      0.72048445	      7.03266506	      0.12274316	     10.15127959	     -2.13409433	     -7.18629670	     16.62725537	     -6.10952959	     -3.53720592	     40.35804892	      0.70438083	      9.39204404	     -2.21833911	     -7.18629670	    -23.79891398	      1.93406800	      3.59918214	     15.08851816	    -20.22828892	     12.64403311	     41.78708687	    102.49603074	      4.48140614	    -10.63204433	     14.56418205	     20.91455434	    100.79459013
      0.08333330	      7.88063453	     -3.04511852	     -0.86504622	      0.52488170	      1.04139557	      0.73390429	    -10.81638703	      5.78065104	      1.16268973	      6.47820387	      0.11306599	     10.76632371	     -2.41265946	     -7.18465905	     17.43962126	     -5.81301244	     -3.35669401	     35.71002695	      0.62325755	      9.03527843	     -1.84347331	     -7.18465905	    -22.81707438	      1.93290224	      3.68327854	     14.12445020	    -20.46172477	     10.87129043	     43.28057651	    101.79475555	      3.96623719	    -10.58799770	     14.78660895	     20.61625302	    100.78937756
